<svg width="15" height="14" viewBox="0 0 15 14" fill="none" xmlns="http://www.w3.org/2000/svg">
<path d="M13.9797 12.5931L10.4797 9.09308C11.3614 8.01325 11.7945 6.63596 11.6896 5.24584C11.5847 3.85573 10.9497 2.55906 9.91588 1.62382C8.88208 0.688572 7.52848 0.186244 6.13484 0.220652C4.7412 0.25506 3.41404 0.823571 2.42765 1.80869C1.44126 2.79381 0.871043 4.12024 0.834843 5.51383C0.798642 6.90743 1.29923 8.26168 2.23314 9.29668C3.16705 10.3317 4.46291 10.9683 5.85288 11.075C7.24286 11.1818 8.62071 10.7504 9.70167 9.87008L13.2017 13.3701C13.3048 13.4733 13.4448 13.5312 13.5907 13.5312C13.7366 13.5312 13.8765 13.4733 13.9797 13.3701C14.0828 13.2669 14.1408 13.127 14.1408 12.9811C14.1408 12.8352 14.0828 12.6953 13.9797 12.5921V12.5931ZM1.95867 5.66808C1.95887 4.8139 2.21234 3.97897 2.68704 3.26884C3.16174 2.55872 3.83635 2.0053 4.62556 1.67856C5.41477 1.35182 6.28314 1.26643 7.12088 1.43319C7.95862 1.59995 8.7281 2.01138 9.33202 2.61544C9.93594 3.2195 10.3472 3.98907 10.5138 4.82685C10.6803 5.66463 10.5947 6.53299 10.2678 7.32212C9.94089 8.11126 9.38731 8.78573 8.67708 9.26026C7.96684 9.7348 7.13185 9.98808 6.27767 9.98808C5.13236 9.98702 4.03426 9.53151 3.2245 8.72155C2.41473 7.9116 1.95947 6.8134 1.95867 5.66808V5.66808Z" fill="#F5F5F7"/>
</svg>
